<svg width="14" height="15" viewBox="0 0 14 15" fill="none" xmlns="http://www.w3.org/2000/svg">
<path d="M2.33203 7.49998C2.33203 5.30009 2.33203 4.20015 3.01545 3.51673C3.69887 2.83331 4.79881 2.83331 6.9987 2.83331C9.19856 2.83331 10.2986 2.83331 10.9819 3.51673C11.6654 4.20015 11.6654 5.30009 11.6654 7.49998C11.6654 9.69985 11.6654 10.7998 10.9819 11.4832C10.2986 12.1666 9.19856 12.1666 6.9987 12.1666C4.79881 12.1666 3.69887 12.1666 3.01545 11.4832C2.33203 10.7998 2.33203 9.69985 2.33203 7.49998Z" stroke="#6366f1" stroke-width="1.25" stroke-linejoin="round"/>
<path d="M5.54297 1.66669V2.83335" stroke="#6366f1" stroke-width="1.25" stroke-linecap="round" stroke-linejoin="round"/>
<path d="M8.45703 1.66669V2.83335" stroke="#6366f1" stroke-width="1.25" stroke-linecap="round" stroke-linejoin="round"/>
<path d="M5.54297 12.1667V13.3334" stroke="#6366f1" stroke-width="1.25" stroke-linecap="round" stroke-linejoin="round"/>
<path d="M8.45703 12.1667V13.3334" stroke="#6366f1" stroke-width="1.25" stroke-linecap="round" stroke-linejoin="round"/>
<path d="M7.58333 5.75L5.25 8.08333" stroke="#6366f1" stroke-width="1.25" stroke-linecap="round" stroke-linejoin="round"/>
<path d="M8.7487 8.08331L7.58203 9.24998" stroke="#6366f1" stroke-width="1.25" stroke-linecap="round" stroke-linejoin="round"/>
<path d="M12.8346 8.95831H11.668" stroke="#6366f1" stroke-width="1.25" stroke-linecap="round" stroke-linejoin="round"/>
<path d="M2.33464 6.04169H1.16797" stroke="#6366f1" stroke-width="1.25" stroke-linecap="round" stroke-linejoin="round"/>
<path d="M2.33464 8.95831H1.16797" stroke="#6366f1" stroke-width="1.25" stroke-linecap="round" stroke-linejoin="round"/>
<path d="M12.8346 6.04169H11.668" stroke="#6366f1" stroke-width="1.25" stroke-linecap="round" stroke-linejoin="round"/>
</svg>
