<svg width="16" height="16" viewBox="0 0 16 16" fill="none" xmlns="http://www.w3.org/2000/svg">
<path d="M2.66536 14V3.33333C2.66536 3.02334 2.66536 2.86835 2.63129 2.74118C2.53882 2.39609 2.26928 2.12654 1.92418 2.03407C1.79702 2 1.64202 2 1.33203 2" stroke="#6366F1" stroke-width="1.25" stroke-linecap="round" stroke-linejoin="round"/>
<path d="M2.66797 3.3335H11.3346C12.906 3.3335 13.6916 3.3335 14.1798 3.82165C14.668 4.30981 14.668 5.09548 14.668 6.66683V9.66683C14.668 11.2382 14.668 12.0238 14.1798 12.512C13.6916 13.0002 12.906 13.0002 11.3346 13.0002H8.07997C7.62317 13.0002 7.20557 12.7421 7.0013 12.3335C6.79704 11.9249 6.37942 11.6668 5.92262 11.6668H2.66797" stroke="#6366F1" stroke-width="1.25" stroke-linecap="round" stroke-linejoin="round"/>
<path d="M12.668 7.6665C12.668 8.77104 11.7726 9.6665 10.668 9.6665C9.56337 9.6665 8.66797 8.77104 8.66797 7.6665C8.66797 6.56193 9.56337 5.6665 10.668 5.6665C11.7726 5.6665 12.668 6.56193 12.668 7.6665Z" stroke="#6366F1" stroke-width="1.25" stroke-linecap="round" stroke-linejoin="round"/>
<path d="M5 5.6665H6.33333M5 7.6665H6.33333M5 9.6665H6.33333" stroke="#6366F1" stroke-width="1.25" stroke-linecap="round" stroke-linejoin="round"/>
</svg>
