<svg width="18" height="18" viewBox="0 0 18 18" fill="none" xmlns="http://www.w3.org/2000/svg">
<path d="M15.585 4.375C16.3132 4.375 16.9248 4.95731 16.9248 5.70117V6.31738C16.9246 6.68732 16.6916 6.9572 16.4473 7.08203C16.2986 7.15793 16.2101 7.29979 16.21 7.45312C16.21 7.60657 16.2985 7.74924 16.4473 7.8252C16.6917 7.9501 16.9248 8.2198 16.9248 8.58984V10.3975C16.9248 10.6136 16.8418 10.8097 16.707 10.958C16.842 11.1064 16.9248 11.3032 16.9248 11.5195V13.2012C16.9248 13.6625 16.5511 14.037 16.0898 14.0371H15.0801C14.8603 14.0371 14.6608 13.9513 14.5117 13.8125C14.3627 13.9509 14.1638 14.0371 13.9443 14.0371H11.5049C11.2854 14.037 11.0865 13.951 10.9375 13.8125C10.7885 13.951 10.5896 14.037 10.3701 14.0371H7.93066C7.71097 14.0371 7.51142 13.9512 7.3623 13.8125C7.21326 13.951 7.01443 14.0371 6.79492 14.0371H4.35547C4.13572 14.0371 3.93624 13.9512 3.78711 13.8125C3.63803 13.951 3.43926 14.0371 3.21973 14.0371H2.20996C1.7488 14.0369 1.375 13.6624 1.375 13.2012V11.5195C1.375 11.3032 1.4579 11.1064 1.59277 10.958C1.45809 10.8097 1.375 10.6136 1.375 10.3975V8.58984C1.37503 8.21962 1.60898 7.95002 1.85352 7.8252L1.90625 7.79395C2.02278 7.71372 2.08984 7.58739 2.08984 7.45312C2.08973 7.29993 2.00196 7.15798 1.85352 7.08203C1.60906 6.95725 1.37519 6.68742 1.375 6.31738V5.70117C1.375 4.95736 1.98665 4.37508 2.71484 4.375H15.585ZM11.9199 8.58105H12.0996V7.02734H11.9199V8.58105ZM9.05957 8.58105H9.24023V7.02734H9.05957V8.58105ZM6.2002 8.58105H6.37988V7.02734H6.2002V8.58105Z" stroke="#6366f1" stroke-width="1.25"/>
</svg>
