<svg width="18" height="18" viewBox="0 0 18 18" fill="none" xmlns="http://www.w3.org/2000/svg">
<path d="M16.165 11.611C15.7153 10.7636 14.8583 10.1911 13.875 10.1911H4.125C3.1417 10.1911 2.28467 10.7636 1.83498 11.611M16.165 11.611C16.3783 12.0129 16.5 12.4767 16.5 12.9706C16.5 14.5056 15.3247 15.75 13.875 15.75H9M16.165 11.611L15.2075 7.72463M1.83498 11.611L3.75 3.83824C4.125 2.64706 4.79657 2.25 5.625 2.25H12.375C13.2034 2.25 13.875 2.64706 14.25 3.83824L14.4894 4.80982M1.83498 11.611C1.62166 12.0129 1.5 12.4767 1.5 12.9706C1.5 14.5056 2.67525 15.75 4.125 15.75H6" stroke="#6366f1" stroke-width="1.25" stroke-linecap="round"/>
<path d="M13.5 12.75V13.5" stroke="#6366f1" stroke-width="1.25" stroke-linecap="round"/>
<path d="M11.625 12.75V13.5" stroke="#6366f1" stroke-width="1.25" stroke-linecap="round"/>
<path d="M9.75 12.75V13.5" stroke="#6366f1" stroke-width="1.25" stroke-linecap="round"/>
<path d="M7.875 12.75V13.5" stroke="#6366f1" stroke-width="1.25" stroke-linecap="round"/>
</svg>
